<?xml version="1.0" encoding="utf-8"?>
<!-- Generator: Adobe Illustrator 22.0.1, SVG Export Plug-In . SVG Version: 6.00 Build 0)  -->
<svg version="1.1" id="Слой_1" xmlns="http://www.w3.org/2000/svg" xmlns:xlink="http://www.w3.org/1999/xlink" x="0px" y="0px"
	 viewBox="0 0 230 50" style="enable-background:new 0 0 230 50;" xml:space="preserve">
<style type="text/css">
	.st0{fill:#5A9632;}
	.st1{fill:#404040;}
</style>
<g>
	<path class="st0" d="M57.5,29.6h-2.7v-1.9c-1.4,1.5-3,2.2-4.8,2.2c-2.2,0-4-0.7-5.4-2.2c-1.3-1.4-2-3.4-2-5.7
		c0-2.4,0.8-4.3,2.3-5.8c1.6-1.5,3.6-2.3,6-2.3c1.5,0,2.8,0.4,3.8,1.1V7.7c0-1.1,0.9-2,2-2h0.8L57.5,29.6L57.5,29.6z M50.5,27.3
		c1.7,0,3.1-0.7,4.3-2v-7.6c-1.3-0.8-2.5-1.2-3.8-1.2c-1.6,0-2.9,0.5-4,1.5c-1,1-1.6,2.3-1.6,4s0.4,2.9,1.4,3.9
		C47.8,26.8,49,27.3,50.5,27.3 M62.6,27.7c-1.5-1.6-2.2-3.5-2.2-5.8c0-2.3,0.8-4.2,2.2-5.7c1.5-1.5,3.5-2.3,5.9-2.3
		c2.4,0,4.4,0.8,5.8,2.3c1.5,1.5,2.3,3.4,2.3,5.7s-0.8,4.2-2.3,5.8c-1.5,1.5-3.4,2.2-5.8,2.2C66.1,29.9,64.1,29.2,62.6,27.7
		 M63.2,21.9c0,1.6,0.5,2.9,1.4,3.9c1,1,2.2,1.5,3.8,1.5c1.5,0,2.8-0.5,3.8-1.5c1-1,1.5-2.3,1.5-3.9c0-1.6-0.5-2.9-1.5-3.9
		c-1-1-2.2-1.5-3.8-1.5c-1.5,0-2.8,0.5-3.8,1.5C63.7,19,63.2,20.3,63.2,21.9 M86.8,25.4c0-0.6-0.3-1-0.8-1.4c-0.6-0.4-1.2-0.7-2-0.9
		c-0.8-0.2-1.6-0.5-2.4-0.8c-0.8-0.3-1.5-0.8-2.1-1.5c-0.6-0.7-0.8-1.6-0.8-2.6c0-1.3,0.5-2.3,1.4-3.1c1-0.8,2.2-1.2,3.8-1.2
		c2.2,0,4,0.6,5.2,1.8l-1.3,2.1c-1.1-1-2.4-1.5-3.8-1.5c-0.7,0-1.3,0.2-1.8,0.6c-0.4,0.4-0.7,0.8-0.7,1.4c0,0.6,0.3,1.1,0.8,1.4
		c0.6,0.4,1.2,0.7,2,0.9c0.8,0.2,1.6,0.5,2.4,0.8c0.8,0.3,1.5,0.8,2.1,1.4c0.6,0.6,0.8,1.5,0.8,2.4c0,1.5-0.6,2.7-1.7,3.5
		c-1.1,0.8-2.5,1.2-4.2,1.2c-1.2,0-2.3-0.2-3.4-0.8c-1.1-0.5-1.8-1.1-2.2-1.6l1.5-2c0.4,0.5,1.1,1,2,1.4c0.9,0.4,1.7,0.6,2.4,0.6
		c0.8,0,1.4-0.2,2-0.6C86.6,26.6,86.8,26.1,86.8,25.4 M92.1,23.7V11.9c0-1.1,0.9-2,2-2h0.8v4.2h5.6v0.6c0,1.1-0.9,2-2,2h-3.6v6.7
		c0,2.6,0.9,3.8,2.7,3.8c0.9,0,1.7-0.3,2.4-0.8l0.8,2.1c-1,0.9-2.4,1.3-3.9,1.3c-1.6,0-2.8-0.5-3.6-1.5
		C92.5,27.4,92.1,25.8,92.1,23.7 M103.7,16.2l-0.3-1c1.5-0.9,3.2-1.4,5.1-1.4c2,0,3.5,0.5,4.5,1.5c0.9,1,1.4,2.6,1.4,4.7v9.4h-0.6
		c-1.1,0-2-0.9-2-2c-1.2,1.5-2.8,2.2-4.9,2.2c-1.4,0-2.5-0.4-3.4-1.3c-0.8-0.8-1.3-2-1.3-3.4c0-1.5,0.5-2.7,1.6-3.6
		c1-0.9,2.4-1.3,4.2-1.3c1.6,0,2.9,0.3,3.8,1c0-1.7-0.2-3-0.7-3.7c-0.5-0.8-1.4-1.1-2.7-1.1c-1,0-2,0.2-3.1,0.6
		C104.6,17.2,103.9,16.9,103.7,16.2 M107.8,27.4c1.5,0,2.8-0.6,3.9-2v-2c-1-0.7-2.1-1-3.4-1c-0.9,0-1.7,0.2-2.3,0.7
		c-0.6,0.4-0.9,1.1-0.9,1.8c0,0.8,0.2,1.4,0.7,1.8C106.3,27.2,107,27.4,107.8,27.4 M129.4,14.2h1.6l-6.7,15.5h-2l-7.1-15.5h3.2
		l3.7,8.3c0.4,1,0.8,2.1,1.3,3.4c0.3-1.1,0.7-2.2,1.2-3.5l3-7C127.9,14.7,128.6,14.2,129.4,14.2 M135.5,29.6h-2.7V7.7
		c0-1.1,0.9-2,2-2h0.8V29.6z M143.3,14.2h2.6l-6.5,7.1l7.3,8.2H143l-6.9-8l5.7-6.6C142.2,14.5,142.7,14.2,143.3,14.2 M148.6,16.2
		l-0.3-1c1.5-0.9,3.2-1.4,5.1-1.4c2,0,3.5,0.5,4.5,1.5c0.9,1,1.4,2.6,1.4,4.7v9.4h-0.6c-1.1,0-2-0.9-2-2c-1.2,1.5-2.8,2.2-4.9,2.2
		c-1.4,0-2.5-0.4-3.4-1.3c-0.8-0.8-1.3-2-1.3-3.4c0-1.5,0.5-2.7,1.6-3.6c1-0.9,2.4-1.3,4.2-1.3c1.6,0,2.9,0.3,3.8,1
		c0-1.7-0.2-3-0.7-3.7c-0.5-0.8-1.4-1.1-2.7-1.1c-1,0-2,0.2-3.1,0.6C149.6,17.2,148.8,16.9,148.6,16.2 M152.8,27.4
		c1.5,0,2.8-0.6,3.9-2v-2c-1-0.7-2.1-1-3.4-1c-0.9,0-1.7,0.2-2.3,0.7c-0.6,0.4-0.9,1.1-0.9,1.8c0,0.8,0.2,1.4,0.7,1.8
		C151.3,27.2,151.9,27.4,152.8,27.4 M162.4,27.7c0-0.5,0.2-0.9,0.6-1.2c0.4-0.4,0.8-0.6,1.4-0.6c0.5,0,0.9,0.2,1.2,0.6
		s0.6,0.8,0.6,1.2c0,0.6-0.2,1-0.5,1.4c-0.3,0.4-0.8,0.6-1.3,0.6c-0.6,0-1-0.2-1.4-0.6C162.6,28.8,162.4,28.3,162.4,27.7
		 M169.3,28.2V7.7c0-1.1,0.9-2,2-2h0.8v10c0.6-0.6,1.3-1,2.2-1.3s1.7-0.5,2.6-0.5c2.2,0,4,0.7,5.3,2.2c1.3,1.4,2,3.3,2,5.6
		c0,2.5-0.8,4.5-2.3,6c-1.5,1.5-3.6,2.2-6.2,2.2C173,29.9,170.9,29.3,169.3,28.2 M176.2,16.5c-0.8,0-1.6,0.2-2.3,0.6
		c-0.8,0.4-1.4,0.8-1.8,1.4v7.9c1,0.7,2.2,1,3.6,1c1.6,0,2.9-0.5,3.9-1.5c1-1,1.5-2.3,1.5-4c0-1.7-0.4-3-1.4-4
		C178.9,16.9,177.7,16.5,176.2,16.5 M191.6,29.6l-7.3-15.3h2c0.8,0,1.5,0.4,1.8,1.2L192,24c0.1,0.2,0.4,0.9,0.9,2.3
		c0.2-0.8,0.4-1.5,0.7-2.4l3.5-9.7h3.1l-6.1,15.3c-0.6,1.4-0.7,2.1-1.5,3c-0.8,1-1.8,1.4-3,1.4c-1,0-2-0.3-2.9-1l0.9-2.1
		c0.7,0.4,1.3,0.5,1.7,0.5c0.6,0,1-0.2,1.5-0.6c0.1-0.1,0.2-0.3,0.3-0.4L191.6,29.6z"/>
	<g>
		<path class="st1" d="M45.8,45.9c-0.7-0.7-1.1-1.6-1.1-2.7c0-1.1,0.4-2,1.1-2.7c0.7-0.7,1.6-1.1,2.8-1.1s2.1,0.4,2.8,1.1
			c0.7,0.7,1.1,1.6,1.1,2.7c0,1.1-0.4,2-1.1,2.7c-0.7,0.7-1.6,1.1-2.8,1.1S46.5,46.6,45.8,45.9z M46.1,43.2c0,0.8,0.2,1.4,0.7,1.8
			c0.5,0.5,1.1,0.7,1.8,0.7s1.3-0.2,1.8-0.7c0.5-0.5,0.7-1.1,0.7-1.9c0-0.8-0.2-1.4-0.7-1.8c-0.5-0.5-1.1-0.7-1.8-0.7
			s-1.3,0.2-1.8,0.7C46.3,41.8,46.1,42.4,46.1,43.2z"/>
		<path class="st1" d="M59.8,46.8v-3.1h-4v3.1h-1.3v-7.3h1.3v3h4v-3h1.3v7.3C61.1,46.8,59.8,46.8,59.8,46.8z"/>
		<path class="st1" d="M68.5,46.8v-6H66L65.9,42c-0.1,0.8-0.2,1.5-0.3,2.1c-0.1,0.6-0.3,1-0.4,1.4c-0.2,0.4-0.4,0.6-0.6,0.8
			c-0.2,0.2-0.5,0.4-0.7,0.4c-0.2,0.1-0.5,0.1-0.8,0.1l-0.2-1.2c0.1,0,0.2,0,0.4,0s0.3-0.2,0.4-0.3c0.2-0.2,0.3-0.4,0.4-0.6
			c0.1-0.3,0.2-0.6,0.3-1.1c0.1-0.5,0.2-1,0.2-1.7l0.1-2.3h5v7.3L68.5,46.8L68.5,46.8z"/>
		<path class="st1" d="M72.7,41.1l-0.3-1c0.7-0.4,1.5-0.7,2.4-0.7c1,0,1.7,0.2,2.1,0.8c0.4,0.5,0.6,1.2,0.6,2.2v4.5h-1.2v-0.9
			c-0.6,0.7-1.3,1-2.3,1c-0.7,0-1.2-0.2-1.6-0.6c-0.4-0.4-0.6-1-0.6-1.6c0-0.7,0.2-1.3,0.8-1.7c0.5-0.4,1.2-0.6,2-0.6
			c0.8,0,1.4,0.2,1.8,0.5c0-0.8-0.1-1.4-0.3-1.7c-0.2-0.4-0.6-0.6-1.3-0.6C74,40.5,73.4,40.7,72.7,41.1z M74.5,45.8
			c0.7,0,1.3-0.3,1.9-0.9v-0.9c-0.4-0.3-1-0.5-1.6-0.5c-0.4,0-0.8,0.1-1.1,0.3c-0.3,0.2-0.4,0.5-0.4,0.9c0,0.4,0.1,0.6,0.4,0.8
			C73.8,45.7,74.1,45.8,74.5,45.8z"/>
		<path class="st1" d="M81.3,46.8H80v-7.3h1.3v5.4l4.2-5.4h1.3v7.3h-1.3v-5.4L81.3,46.8z M81,35.8h1.2c0.1,0.8,0.5,1.3,1.2,1.3
			c0.7,0,1.1-0.4,1.2-1.3h1.2c0,0.6-0.2,1.2-0.6,1.6c-0.4,0.4-1,0.6-1.7,0.6c-0.8,0-1.4-0.2-1.8-0.6C81.3,37,81,36.5,81,35.8z"/>
		<path class="st1" d="M94.6,46.8v-3.1h-4v3.1h-1.3v-7.3h1.3v3h4v-3h1.3v7.3C95.9,46.8,94.6,46.8,94.6,46.8z"/>
		<path class="st1" d="M98.2,43v-1.2h3.8V43H98.2z"/>
		<path class="st1" d="M104.2,46.8v-7.3h4.6v1.2h-3.3v6.1C105.5,46.8,104.2,46.8,104.2,46.8z"/>
		<path class="st1" d="M111.7,46.8h-1.3v-7.3h1.3v5.4l4.2-5.4h1.3v7.3h-1.3v-5.4L111.7,46.8z"/>
		<path class="st1" d="M124.9,46.8v-6.1H121v6.1h-1.3v-7.3h6.5v7.3C126.2,46.8,124.9,46.8,124.9,46.8z"/>
		<path class="st1" d="M134.5,45l0.4,1c-0.7,0.6-1.6,1-2.7,1c-1.2,0-2.1-0.4-2.8-1c-0.7-0.7-1-1.6-1-2.8c0-1.1,0.3-2,1-2.7
			c0.7-0.7,1.6-1.1,2.7-1.1c1,0,1.8,0.3,2.4,0.9s1,1.4,1,2.4c0,0.3,0,0.6-0.1,0.9h-5.6c0,0.7,0.3,1.2,0.8,1.6c0.4,0.4,1,0.6,1.8,0.6
			C133.2,45.8,134,45.5,134.5,45z M131.9,40.6c-0.6,0-1.2,0.2-1.6,0.6c-0.4,0.4-0.6,0.8-0.7,1.4h4.4c0-0.6-0.2-1.1-0.6-1.4
			C133.1,40.8,132.6,40.6,131.9,40.6z"/>
		<path class="st1" d="M137.4,50.1V39.5h1.3v0.8c0.2-0.3,0.6-0.6,1-0.7c0.4-0.2,0.9-0.3,1.4-0.3c1,0,1.8,0.4,2.4,1
			c0.6,0.7,0.9,1.6,0.9,2.6c0,1.1-0.4,2-1,2.8c-0.7,0.8-1.6,1.1-2.7,1.1c-0.8,0-1.5-0.2-2-0.5V50L137.4,50.1L137.4,50.1z
			 M140.8,40.6c-0.8,0-1.6,0.3-2.1,1v3.6c0.6,0.4,1.2,0.6,1.9,0.6c0.8,0,1.4-0.2,1.8-0.8c0.4-0.5,0.7-1.1,0.7-1.9
			c0-0.8-0.2-1.4-0.6-1.8C142.1,40.8,141.5,40.6,140.8,40.6z"/>
		<path class="st1" d="M146.6,46.8v-7.3h1.2l2.8,3.6l2.6-3.6h1.2v7.3H153v-5.3l-2.5,3.4h0l-2.6-3.4v5.3
			C147.8,46.8,146.6,46.8,146.6,46.8z"/>
		<path class="st1" d="M157.3,41.1l-0.3-1c0.7-0.4,1.5-0.7,2.4-0.7c1,0,1.7,0.2,2.1,0.8c0.4,0.5,0.6,1.2,0.6,2.2v4.5h-1.2v-0.9
			c-0.6,0.7-1.3,1-2.3,1c-0.7,0-1.2-0.2-1.6-0.6c-0.4-0.4-0.6-1-0.6-1.6c0-0.7,0.2-1.3,0.8-1.7c0.5-0.4,1.2-0.6,2-0.6
			c0.8,0,1.4,0.2,1.8,0.5c0-0.8-0.1-1.4-0.3-1.7s-0.6-0.6-1.3-0.6C158.6,40.5,157.9,40.7,157.3,41.1z M159,45.8
			c0.7,0,1.3-0.3,1.9-0.9v-0.9c-0.4-0.3-1-0.5-1.6-0.5c-0.4,0-0.8,0.1-1.1,0.3c-0.3,0.2-0.4,0.5-0.4,0.9c0,0.4,0.1,0.6,0.4,0.8
			C158.3,45.7,158.6,45.8,159,45.8z"/>
		<path class="st1" d="M164.5,50.1V39.5h1.3v0.8c0.2-0.3,0.6-0.6,1-0.7c0.4-0.2,0.9-0.3,1.4-0.3c1,0,1.8,0.4,2.4,1
			c0.6,0.7,0.9,1.6,0.9,2.6c0,1.1-0.4,2-1,2.8c-0.7,0.8-1.6,1.1-2.7,1.1c-0.8,0-1.5-0.2-2-0.5V50L164.5,50.1L164.5,50.1z
			 M167.9,40.6c-0.8,0-1.6,0.3-2.1,1v3.6c0.6,0.4,1.2,0.6,1.9,0.6c0.8,0,1.4-0.2,1.8-0.8c0.4-0.5,0.7-1.1,0.7-1.9
			c0-0.8-0.2-1.4-0.6-1.8S168.6,40.6,167.9,40.6z"/>
		<path class="st1" d="M173.7,46.8v-7.3h1.3v7.3C175,46.8,173.7,46.8,173.7,46.8z M180,39.5l-3.2,3.5l3.5,3.8h-1.8l-3.2-3.7l3-3.6
			C178.3,39.5,180,39.5,180,39.5z"/>
		<path class="st1" d="M187.2,45l0.4,1c-0.7,0.6-1.6,1-2.7,1c-1.2,0-2.1-0.4-2.8-1c-0.7-0.7-1-1.6-1-2.8c0-1.1,0.3-2,1-2.7
			c0.7-0.7,1.6-1.1,2.7-1.1c1,0,1.8,0.3,2.4,0.9s1,1.4,1,2.4c0,0.3,0,0.6-0.1,0.9h-5.6c0,0.7,0.3,1.2,0.8,1.6c0.4,0.4,1,0.6,1.8,0.6
			C185.9,45.8,186.7,45.5,187.2,45z M184.7,40.6c-0.6,0-1.2,0.2-1.6,0.6c-0.4,0.4-0.6,0.8-0.7,1.4h4.4c0-0.6-0.2-1.1-0.6-1.4
			C185.8,40.8,185.3,40.6,184.7,40.6z"/>
		<path class="st1" d="M189.3,40.8v-1.3h6.6v1.3h-2.6v6H192v-6H189.3z"/>
	</g>
	<g>
		<path class="st0" d="M34.7,9.7c0-2-1.6-3.5-3.6-3.5h-4.2V4.6c0-2.5-2-4.6-4.5-4.6h-9c-2.5,0-4.5,2-4.5,4.5v1.6H4.6
			C2.6,6.1,1,7.6,1,9.6L0,42.8c0,1,0.3,1.9,1,2.6c0.7,0.7,1.6,1.1,2.6,1.1H32c1,0,1.9-0.4,2.6-1.1c0.7-0.7,1-1.6,1-2.6L34.7,9.7z
			 M11.5,4.5c0-1,0.8-1.8,1.8-1.8h9c1,0,1.8,0.8,1.8,1.8v1.6H11.5V4.5z M32.7,43.5c-0.2,0.2-0.4,0.3-0.6,0.3H3.6
			c-0.2,0-0.5-0.1-0.6-0.3c-0.2-0.2-0.2-0.4-0.2-0.6l1-33.2c0-0.5,0.4-0.9,0.9-0.9h4.2v0.3c0,0.8,0.6,1.4,1.4,1.4
			c0.8,0,1.4-0.6,1.4-1.4V8.8h12.6v0.3c0,0.8,0.6,1.4,1.4,1.4c0.8,0,1.4-0.6,1.4-1.4V8.8h4.2c0.5,0,0.9,0.4,0.9,0.9l1,33.2
			C32.9,43.1,32.8,43.3,32.7,43.5z"/>
		<path class="st0" d="M18.3,16.3c-3.2,0-5.7,1-7.5,3s-2.8,4.5-2.8,7.5c0,3.2,1,5.7,2.9,7.6c2,1.9,4.5,2.8,7.8,2.8
			c2.6,0,4.8-0.6,6.5-1.9c0.6-0.4,0.8-1.2,0.6-1.8c-0.3-0.8-1.3-1.2-2.1-0.8c-1.3,0.7-2.8,1.1-4.7,1.1c-2,0-3.6-0.5-4.8-1.6
			s-2-2.6-2.1-4.4h14.4c0.6,0,1-0.4,1.1-1c0-0.4,0.1-0.9,0.1-1.4c0-2.7-0.9-4.9-2.6-6.6C23.1,17.1,20.9,16.3,18.3,16.3z M11.8,24.9
			c0.2-1.6,0.9-2.9,2-3.8c1.1-1,2.6-1.5,4.4-1.5c1.7,0,3.1,0.5,4.1,1.4s1.6,2.3,1.7,3.9L11.8,24.9L11.8,24.9z"/>
	</g>
</g>
</svg>
